<?xml version="1.0" encoding="UTF-8"?>
<svg width="800" height="400" viewBox="0 0 800 400" fill="none" xmlns="http://www.w3.org/2000/svg">
  <!-- Background Elements -->
  <path d="M0 300 Q400 350 800 300 L800 400 L0 400 Z" fill="#E3F2FD" opacity="0.3"/>
  <path d="M0 320 Q400 370 800 320 L800 400 L0 400 Z" fill="#BBDEFB" opacity="0.2"/>
  
  <!-- Profile Circle -->
  <circle cx="400" cy="150" r="80" fill="#2196F3"/>
  <circle cx="400" cy="120" r="30" fill="#BBDEFB"/>
  <path d="M350 180 Q400 220 450 180" fill="#BBDEFB"/>
  
  <!-- Decorative Elements -->
  <g transform="translate(200,100)">
    <rect x="0" y="0" width="100" height="20" rx="10" fill="#64B5F6" opacity="0.6"/>
    <rect x="0" y="40" width="80" height="20" rx="10" fill="#64B5F6" opacity="0.6"/>
    <rect x="0" y="80" width="120" height="20" rx="10" fill="#64B5F6" opacity="0.6"/>
  </g>
  
  <g transform="translate(500,100)">
    <rect x="0" y="0" width="100" height="20" rx="10" fill="#1976D2" opacity="0.6"/>
    <rect x="0" y="40" width="80" height="20" rx="10" fill="#1976D2" opacity="0.6"/>
    <rect x="0" y="80" width="120" height="20" rx="10" fill="#1976D2" opacity="0.6"/>
  </g>
  
  <!-- Connection Lines -->
  <path d="M200 250 Q400 300 600 250" stroke="#2196F3" stroke-width="2" stroke-dasharray="5,5"/>
  <path d="M150 200 Q400 150 650 200" stroke="#1976D2" stroke-width="2" stroke-dasharray="5,5"/>
  
  <!-- Floating Elements -->
  <circle cx="200" cy="150" r="10" fill="#2196F3" opacity="0.6"/>
  <circle cx="600" cy="150" r="10" fill="#2196F3" opacity="0.6"/>
  <circle cx="300" cy="300" r="15" fill="#1976D2" opacity="0.6"/>
  <circle cx="500" cy="300" r="15" fill="#1976D2" opacity="0.6"/>
</svg>
