<?xml version="1.0" encoding="UTF-8"?>
<svg width="800" height="400" viewBox="0 0 800 400" fill="none" xmlns="http://www.w3.org/2000/svg">
  <!-- Background Elements -->
  <path d="M0 300 Q400 350 800 300 L800 400 L0 400 Z" fill="#E3F2FD" opacity="0.3"/>
  <path d="M0 320 Q400 370 800 320 L800 400 L0 400 Z" fill="#BBDEFB" opacity="0.2"/>
  
  <!-- Clipboard -->
  <g transform="translate(400,150)">
    <!-- Clipboard Base -->
    <rect x="-80" y="-100" width="160" height="200" rx="10" fill="#2196F3"/>
    <rect x="-70" y="-90" width="140" height="180" rx="5" fill="white"/>
    
    <!-- Clipboard Top -->
    <rect x="-40" y="-110" width="80" height="20" rx="10" fill="#1976D2"/>
    
    <!-- Lines -->
    <rect x="-50" y="-70" width="100" height="10" rx="5" fill="#BBDEFB"/>
    <rect x="-50" y="-40" width="100" height="10" rx="5" fill="#BBDEFB"/>
    <rect x="-50" y="-10" width="100" height="10" rx="5" fill="#BBDEFB"/>
    <rect x="-50" y="20" width="100" height="10" rx="5" fill="#BBDEFB"/>
    <rect x="-50" y="50" width="60" height="10" rx="5" fill="#BBDEFB"/>
  </g>
  
  <!-- Checkmarks -->
  <g transform="translate(200,150)">
    <circle cx="0" cy="0" r="30" fill="#64B5F6" opacity="0.8"/>
    <path d="M-15 0 L-5 10 L15 -10" stroke="white" stroke-width="4" stroke-linecap="round" stroke-linejoin="round">
      <animate attributeName="stroke-dasharray" values="0,100;100,0" dur="1s"/>
    </path>
  </g>
  
  <g transform="translate(600,150)">
    <circle cx="0" cy="0" r="30" fill="#1976D2" opacity="0.8"/>
    <path d="M-15 0 L-5 10 L15 -10" stroke="white" stroke-width="4" stroke-linecap="round" stroke-linejoin="round">
      <animate attributeName="stroke-dasharray" values="0,100;100,0" dur="1s" begin="0.5s"/>
    </path>
  </g>
  
  <!-- Pencil -->
  <g transform="translate(250,50) rotate(-45)">
    <rect x="-40" y="-10" width="80" height="20" fill="#FFC107"/>
    <polygon points="40,-10 40,10 60,0" fill="#FF9800"/>
    <rect x="-50" y="-10" width="10" height="20" fill="#FFE082"/>
  </g>
  
  <!-- Eraser -->
  <g transform="translate(550,50) rotate(45)">
    <rect x="-30" y="-15" width="60" height="30" rx="5" fill="#F06292"/>
    <rect x="-30" y="-15" width="30" height="30" rx="5" fill="#EC407A"/>
  </g>
  
  <!-- Connection Lines -->
  <path d="M200 150 Q400 100 600 150" stroke="#2196F3" stroke-width="2" stroke-dasharray="5,5"/>
  <path d="M250 50 Q400 0 550 50" stroke="#FFC107" stroke-width="2" stroke-dasharray="5,5"/>
  
  <!-- Floating Elements -->
  <g transform="translate(150,250)">
    <circle cx="0" cy="0" r="10" fill="#2196F3" opacity="0.6">
      <animate attributeName="cy" values="0;10;0" dur="2s" repeatCount="indefinite"/>
    </circle>
  </g>
  
  <g transform="translate(650,250)">
    <circle cx="0" cy="0" r="10" fill="#1976D2" opacity="0.6">
      <animate attributeName="cy" values="0;-10;0" dur="2s" repeatCount="indefinite"/>
    </circle>
  </g>
</svg>
