<?xml version="1.0" encoding="UTF-8"?>
<svg width="800" height="400" viewBox="0 0 800 400" fill="none" xmlns="http://www.w3.org/2000/svg">
  <!-- Background Elements -->
  <path d="M0 300 Q400 350 800 300 L800 400 L0 400 Z" fill="#E3F2FD" opacity="0.3"/>
  <path d="M0 320 Q400 370 800 320 L800 400 L0 400 Z" fill="#BBDEFB" opacity="0.2"/>
  
  <!-- Globe -->
  <circle cx="400" cy="150" r="100" fill="#2196F3" opacity="0.2"/>
  <ellipse cx="400" cy="150" rx="100" ry="30" fill="#1976D2" opacity="0.3"/>
  <path d="M300 150 Q400 200 500 150 Q400 100 300 150" fill="#2196F3" opacity="0.3"/>
  <path d="M400 50 Q450 150 400 250" stroke="#1976D2" stroke-width="2"/>
  <path d="M300 150 L500 150" stroke="#1976D2" stroke-width="2"/>
  
  <!-- Language Bubbles -->
  <g transform="translate(200,100)">
    <circle cx="0" cy="0" r="40" fill="#64B5F6"/>
    <text x="0" y="0" text-anchor="middle" dominant-baseline="middle" fill="white" font-size="20">EN</text>
  </g>
  
  <g transform="translate(600,100)">
    <circle cx="0" cy="0" r="40" fill="#1976D2"/>
    <text x="0" y="0" text-anchor="middle" dominant-baseline="middle" fill="white" font-size="20">ES</text>
  </g>
  
  <g transform="translate(200,250)">
    <circle cx="0" cy="0" r="40" fill="#90CAF9"/>
    <text x="0" y="0" text-anchor="middle" dominant-baseline="middle" fill="white" font-size="20">FR</text>
  </g>
  
  <g transform="translate(600,250)">
    <circle cx="0" cy="0" r="40" fill="#42A5F5"/>
    <text x="0" y="0" text-anchor="middle" dominant-baseline="middle" fill="white" font-size="20">DE</text>
  </g>
  
  <!-- Connection Lines -->
  <path d="M200 100 Q400 50 600 100" stroke="#2196F3" stroke-width="2" stroke-dasharray="5,5"/>
  <path d="M200 250 Q400 300 600 250" stroke="#1976D2" stroke-width="2" stroke-dasharray="5,5"/>
  <path d="M200 100 Q200 175 200 250" stroke="#64B5F6" stroke-width="2" stroke-dasharray="5,5"/>
  <path d="M600 100 Q600 175 600 250" stroke="#42A5F5" stroke-width="2" stroke-dasharray="5,5"/>
</svg>
