<?xml version="1.0" encoding="UTF-8"?>
<svg width="800" height="400" viewBox="0 0 800 400" fill="none" xmlns="http://www.w3.org/2000/svg">
  <!-- Background Elements -->
  <path d="M0 300 Q400 350 800 300 L800 400 L0 400 Z" fill="#E3F2FD" opacity="0.3"/>
  <path d="M0 320 Q400 370 800 320 L800 400 L0 400 Z" fill="#BBDEFB" opacity="0.2"/>
  
  <!-- Main Device Frame -->
  <rect x="250" y="50" width="300" height="250" rx="20" fill="#1976D2"/>
  <rect x="260" y="60" width="280" height="230" rx="15" fill="white"/>
  
  <!-- Login Form Elements -->
  <rect x="290" y="100" width="220" height="40" rx="8" fill="#F5F5F5"/>
  <rect x="290" y="160" width="220" height="40" rx="8" fill="#F5F5F5"/>
  <rect x="290" y="220" width="220" height="40" rx="8" fill="#2196F3"/>
  
  <!-- Decorative Elements -->
  <circle cx="400" cy="50" r="20" fill="#2196F3" opacity="0.2"/>
  <circle cx="450" cy="70" r="15" fill="#2196F3" opacity="0.15"/>
  <circle cx="350" cy="80" r="10" fill="#2196F3" opacity="0.1"/>
  
  <!-- Lock Icon -->
  <g transform="translate(380,30)">
    <rect x="-15" y="0" width="30" height="25" rx="5" fill="#1976D2"/>
    <path d="M-8 0 A8 8 0 0 1 8 0" stroke="#1976D2" stroke-width="4" fill="none"/>
  </g>
  
  <!-- Animated Elements -->
  <g>
    <circle cx="200" cy="150" r="8" fill="#2196F3" opacity="0.6">
      <animate attributeName="cy" values="150;140;150" dur="2s" repeatCount="indefinite"/>
    </circle>
    <circle cx="600" cy="150" r="8" fill="#2196F3" opacity="0.6">
      <animate attributeName="cy" values="150;160;150" dur="2s" repeatCount="indefinite"/>
    </circle>
  </g>
  
  <!-- Connection Lines -->
  <path d="M200 150 Q400 100 600 150" stroke="#2196F3" stroke-width="2" stroke-dasharray="5,5"/>
  
  <!-- Security Icons -->
  <g transform="translate(180,250)">
    <circle cx="0" cy="0" r="20" fill="#E3F2FD"/>
    <path d="M-10 0 L-3 7 L10 -6" stroke="#1976D2" stroke-width="3" fill="none"/>
  </g>
  
  <g transform="translate(620,250)">
    <circle cx="0" cy="0" r="20" fill="#E3F2FD"/>
    <rect x="-8" y="-8" width="16" height="16" rx="2" stroke="#1976D2" stroke-width="3" fill="none"/>
    <circle cx="0" cy="0" r="3" fill="#1976D2"/>
  </g>
</svg>
