<?xml version="1.0" encoding="UTF-8"?>
<svg width="800" height="400" viewBox="0 0 800 400" fill="none" xmlns="http://www.w3.org/2000/svg">
  <!-- Background Elements -->
  <path d="M0 300 Q400 350 800 300 L800 400 L0 400 Z" fill="#E3F2FD" opacity="0.3"/>
  <path d="M0 320 Q400 370 800 320 L800 400 L0 400 Z" fill="#BBDEFB" opacity="0.2"/>
  
  <!-- Message Bubbles -->
  <g transform="translate(400,150)">
    <!-- Left Message -->
    <g transform="translate(-120,0)">
      <path d="M-80 -30 H60 Q70 -30 70 -20 V20 Q70 30 60 30 H-60 L-80 50 V-20 Q-80 -30 -70 -30" fill="#2196F3"/>
      <rect x="-60" y="-15" width="110" height="10" rx="5" fill="white" opacity="0.6"/>
      <rect x="-60" y="5" width="80" height="10" rx="5" fill="white" opacity="0.6"/>
    </g>
    
    <!-- Right Message -->
    <g transform="translate(120,0)">
      <path d="M80 -30 H-60 Q-70 -30 -70 -20 V20 Q-70 30 -60 30 H60 L80 50 V-20 Q80 -30 70 -30" fill="#1976D2"/>
      <rect x="-50" y="-15" width="110" height="10" rx="5" fill="white" opacity="0.6"/>
      <rect x="-50" y="5" width="80" height="10" rx="5" fill="white" opacity="0.6"/>
    </g>
  </g>
  
  <!-- Profile Circles -->
  <g transform="translate(200,150)">
    <circle cx="0" cy="0" r="40" fill="#64B5F6"/>
    <circle cx="0" cy="-15" r="15" fill="#BBDEFB"/>
    <path d="M-20 20 Q0 40 20 20" fill="#BBDEFB"/>
  </g>
  
  <g transform="translate(600,150)">
    <circle cx="0" cy="0" r="40" fill="#1976D2"/>
    <circle cx="0" cy="-15" r="15" fill="#90CAF9"/>
    <path d="M-20 20 Q0 40 20 20" fill="#90CAF9"/>
  </g>
  
  <!-- Floating Elements -->
  <g transform="translate(250,50)">
    <circle cx="0" cy="0" r="15" fill="#2196F3" opacity="0.6">
      <animate attributeName="cy" values="0;10;0" dur="2s" repeatCount="indefinite"/>
    </circle>
  </g>
  
  <g transform="translate(550,50)">
    <circle cx="0" cy="0" r="15" fill="#1976D2" opacity="0.6">
      <animate attributeName="cy" values="0;-10;0" dur="2s" repeatCount="indefinite"/>
    </circle>
  </g>
  
  <!-- Connection Lines -->
  <path d="M200 150 Q400 100 600 150" stroke="#2196F3" stroke-width="2" stroke-dasharray="5,5"/>
  <path d="M250 50 Q400 0 550 50" stroke="#1976D2" stroke-width="2" stroke-dasharray="5,5"/>
  
  <!-- Typing Indicator -->
  <g transform="translate(400,250)">
    <circle cx="-10" cy="0" r="5" fill="#2196F3">
      <animate attributeName="opacity" values="0.3;1;0.3" dur="1s" repeatCount="indefinite"/>
    </circle>
    <circle cx="0" cy="0" r="5" fill="#2196F3">
      <animate attributeName="opacity" values="0.3;1;0.3" dur="1s" repeatCount="indefinite" begin="0.2s"/>
    </circle>
    <circle cx="10" cy="0" r="5" fill="#2196F3">
      <animate attributeName="opacity" values="0.3;1;0.3" dur="1s" repeatCount="indefinite" begin="0.4s"/>
    </circle>
  </g>
</svg>
