<?xml version="1.0" encoding="UTF-8"?>
<svg width="800" height="400" viewBox="0 0 800 400" fill="none" xmlns="http://www.w3.org/2000/svg">
  <!-- Background Elements -->
  <path d="M0 300 Q400 350 800 300 L800 400 L0 400 Z" fill="#E3F2FD" opacity="0.3"/>
  <path d="M0 320 Q400 370 800 320 L800 400 L0 400 Z" fill="#BBDEFB" opacity="0.2"/>
  
  <!-- Main Bell -->
  <g transform="translate(350,100)">
    <path d="M0 0 Q50 0 100 0 Q120 50 120 100 L-20 100 Q-20 50 0 0" fill="#2196F3"/>
    <circle cx="50" cy="-10" r="15" fill="#2196F3"/>
    <path d="M30 100 Q50 120 70 100" fill="#1976D2"/>
  </g>
  
  <!-- Notification Circles -->
  <g transform="translate(200,150)">
    <circle cx="0" cy="0" r="30" fill="#64B5F6">
      <animate attributeName="opacity" values="0.4;1;0.4" dur="2s" repeatCount="indefinite"/>
    </circle>
    <circle cx="0" cy="0" r="20" fill="#90CAF9">
      <animate attributeName="opacity" values="0.6;1;0.6" dur="2s" repeatCount="indefinite"/>
    </circle>
  </g>
  
  <g transform="translate(600,150)">
    <circle cx="0" cy="0" r="30" fill="#64B5F6">
      <animate attributeName="opacity" values="1;0.4;1" dur="2s" repeatCount="indefinite"/>
    </circle>
    <circle cx="0" cy="0" r="20" fill="#90CAF9">
      <animate attributeName="opacity" values="1;0.6;1" dur="2s" repeatCount="indefinite"/>
    </circle>
  </g>
  
  <!-- Notification Messages -->
  <g transform="translate(150,250)">
    <rect x="0" y="0" width="150" height="30" rx="15" fill="#1976D2" opacity="0.8"/>
    <rect x="20" y="50" width="100" height="30" rx="15" fill="#1976D2" opacity="0.6"/>
  </g>
  
  <g transform="translate(500,250)">
    <rect x="0" y="0" width="150" height="30" rx="15" fill="#2196F3" opacity="0.8"/>
    <rect x="30" y="50" width="100" height="30" rx="15" fill="#2196F3" opacity="0.6"/>
  </g>
  
  <!-- Connection Lines -->
  <path d="M200 150 Q400 100 600 150" stroke="#2196F3" stroke-width="2" stroke-dasharray="5,5"/>
  <path d="M150 280 Q400 330 650 280" stroke="#1976D2" stroke-width="2" stroke-dasharray="5,5"/>
</svg>
