<?xml version="1.0" encoding="UTF-8"?>
<svg width="600" height="400" viewBox="0 0 600 400" fill="none" xmlns="http://www.w3.org/2000/svg">
  <!-- Shield Background -->
  <path d="M300 50 L500 150 L500 300 L300 380 L100 300 L100 150 Z" fill="#E3F2FD"/>
  <path d="M300 80 L460 160 L460 280 L300 350 L140 280 L140 160 Z" fill="#BBDEFB"/>
  
  <!-- Lock Icon -->
  <rect x="250" y="180" width="100" height="80" rx="10" fill="#1976D2"/>
  <circle cx="300" cy="220" r="15" fill="white"/>
  <rect x="295" y="220" width="10" height="25" fill="white"/>
  <path d="M270 180 Q300 140 330 180" stroke="#1976D2" stroke-width="20" stroke-linecap="round"/>
  
  <!-- Security Elements -->
  <circle cx="200" cy="150" r="20" fill="#2196F3" opacity="0.6"/>
  <circle cx="400" cy="150" r="20" fill="#2196F3" opacity="0.6"/>
  <circle cx="200" cy="300" r="20" fill="#2196F3" opacity="0.6"/>
  <circle cx="400" cy="300" r="20" fill="#2196F3" opacity="0.6"/>
  
  <!-- Connection Lines -->
  <path d="M200 150 L400 150" stroke="#90CAF9" stroke-width="2" stroke-dasharray="5,5"/>
  <path d="M200 300 L400 300" stroke="#90CAF9" stroke-width="2" stroke-dasharray="5,5"/>
  <path d="M200 150 L200 300" stroke="#90CAF9" stroke-width="2" stroke-dasharray="5,5"/>
  <path d="M400 150 L400 300" stroke="#90CAF9" stroke-width="2" stroke-dasharray="5,5"/>
  
  <!-- Decorative Elements -->
  <circle cx="150" cy="100" r="8" fill="#64B5F6" opacity="0.4"/>
  <circle cx="450" cy="100" r="8" fill="#64B5F6" opacity="0.4"/>
  <circle cx="150" cy="350" r="8" fill="#64B5F6" opacity="0.4"/>
  <circle cx="450" cy="350" r="8" fill="#64B5F6" opacity="0.4"/>
</svg>
