<?xml version="1.0" encoding="UTF-8"?>
<svg width="800" height="400" viewBox="0 0 800 400" fill="none" xmlns="http://www.w3.org/2000/svg">
  <!-- Background Elements -->
  <path d="M0 300 Q400 350 800 300 L800 400 L0 400 Z" fill="#E3F2FD" opacity="0.3"/>
  <path d="M0 320 Q400 370 800 320 L800 400 L0 400 Z" fill="#BBDEFB" opacity="0.2"/>
  
  <!-- Progress Chart -->
  <g transform="translate(350,100)">
    <!-- Bar Chart -->
    <rect x="0" y="0" width="30" height="120" fill="#2196F3" opacity="0.8">
      <animate attributeName="height" values="0;120" dur="1s" />
    </rect>
    <rect x="50" y="40" width="30" height="80" fill="#1976D2" opacity="0.8">
      <animate attributeName="height" values="0;80" dur="1s" />
    </rect>
    <rect x="100" y="20" width="30" height="100" fill="#2196F3" opacity="0.8">
      <animate attributeName="height" values="0;100" dur="1s" />
    </rect>
    
    <!-- Line Chart -->
    <path d="M0 150 Q50 100 100 120 T200 90" stroke="#1976D2" stroke-width="3" fill="none">
      <animate attributeName="stroke-dasharray" values="0,1000;1000,0" dur="2s" />
    </path>
  </g>
  
  <!-- Decorative Elements -->
  <g transform="translate(200,150)">
    <circle cx="0" cy="0" r="40" fill="#64B5F6" opacity="0.6"/>
    <circle cx="0" cy="0" r="30" fill="#90CAF9" opacity="0.4"/>
    <circle cx="0" cy="0" r="20" fill="#BBDEFB" opacity="0.2"/>
  </g>
  
  <g transform="translate(600,150)">
    <circle cx="0" cy="0" r="40" fill="#1976D2" opacity="0.6"/>
    <circle cx="0" cy="0" r="30" fill="#2196F3" opacity="0.4"/>
    <circle cx="0" cy="0" r="20" fill="#64B5F6" opacity="0.2"/>
  </g>
  
  <!-- Achievement Stars -->
  <g transform="translate(250,50)">
    <path d="M0 0 L5 15 L20 17 L10 28 L12 43 L0 36 L-12 43 L-10 28 L-20 17 L-5 15 Z" fill="#FFC107">
      <animate attributeName="opacity" values="0.4;1;0.4" dur="2s" repeatCount="indefinite"/>
    </path>
  </g>
  
  <g transform="translate(550,50)">
    <path d="M0 0 L5 15 L20 17 L10 28 L12 43 L0 36 L-12 43 L-10 28 L-20 17 L-5 15 Z" fill="#FFC107">
      <animate attributeName="opacity" values="1;0.4;1" dur="2s" repeatCount="indefinite"/>
    </path>
  </g>
  
  <!-- Connection Lines -->
  <path d="M200 150 Q400 100 600 150" stroke="#2196F3" stroke-width="2" stroke-dasharray="5,5"/>
  <path d="M250 50 Q400 0 550 50" stroke="#FFC107" stroke-width="2" stroke-dasharray="5,5"/>
</svg>
