<?xml version="1.0" encoding="UTF-8"?>
<svg width="800" height="400" viewBox="0 0 800 400" fill="none" xmlns="http://www.w3.org/2000/svg">
  <!-- Background Elements -->
  <path d="M0 300 Q400 350 800 300 L800 400 L0 400 Z" fill="#E3F2FD" opacity="0.3"/>
  <path d="M0 320 Q400 370 800 320 L800 400 L0 400 Z" fill="#BBDEFB" opacity="0.2"/>
  
  <!-- Calendar -->
  <g transform="translate(350,100)">
    <!-- Calendar Frame -->
    <rect x="-100" y="-50" width="200" height="180" rx="10" fill="#2196F3" opacity="0.1"/>
    <rect x="-90" y="-40" width="180" height="30" rx="5" fill="#1976D2"/>
    
    <!-- Calendar Grid -->
    <g transform="translate(-80,-5)">
      <rect x="0" y="0" width="30" height="30" rx="5" fill="#64B5F6" opacity="0.6"/>
      <rect x="40" y="0" width="30" height="30" rx="5" fill="#2196F3" opacity="0.4"/>
      <rect x="80" y="0" width="30" height="30" rx="5" fill="#64B5F6" opacity="0.6"/>
      <rect x="120" y="0" width="30" height="30" rx="5" fill="#2196F3" opacity="0.4"/>
      
      <rect x="0" y="40" width="30" height="30" rx="5" fill="#2196F3" opacity="0.4"/>
      <rect x="40" y="40" width="30" height="30" rx="5" fill="#64B5F6" opacity="0.6"/>
      <rect x="80" y="40" width="30" height="30" rx="5" fill="#2196F3" opacity="0.4"/>
      <rect x="120" y="40" width="30" height="30" rx="5" fill="#64B5F6" opacity="0.6"/>
      
      <rect x="0" y="80" width="30" height="30" rx="5" fill="#64B5F6" opacity="0.6"/>
      <rect x="40" y="80" width="30" height="30" rx="5" fill="#2196F3" opacity="0.4"/>
      <rect x="80" y="80" width="30" height="30" rx="5" fill="#64B5F6" opacity="0.6"/>
      <rect x="120" y="80" width="30" height="30" rx="5" fill="#2196F3" opacity="0.4"/>
    </g>
  </g>
  
  <!-- Clock Elements -->
  <g transform="translate(200,150)">
    <circle cx="0" cy="0" r="40" fill="#1976D2" opacity="0.8"/>
    <circle cx="0" cy="0" r="35" fill="white" opacity="0.9"/>
    <!-- Clock Hands -->
    <line x1="0" y1="0" x2="0" y2="-25" stroke="#1976D2" stroke-width="2">
      <animateTransform
        attributeName="transform"
        type="rotate"
        from="0 0 0"
        to="360 0 0"
        dur="60s"
        repeatCount="indefinite"
      />
    </line>
    <line x1="0" y1="0" x2="15" y2="0" stroke="#1976D2" stroke-width="2">
      <animateTransform
        attributeName="transform"
        type="rotate"
        from="0 0 0"
        to="360 0 0"
        dur="12s"
        repeatCount="indefinite"
      />
    </line>
  </g>
  
  <g transform="translate(600,150)">
    <circle cx="0" cy="0" r="40" fill="#2196F3" opacity="0.8"/>
    <circle cx="0" cy="0" r="35" fill="white" opacity="0.9"/>
    <!-- Clock Hands -->
    <line x1="0" y1="0" x2="0" y2="-25" stroke="#2196F3" stroke-width="2">
      <animateTransform
        attributeName="transform"
        type="rotate"
        from="0 0 0"
        to="360 0 0"
        dur="30s"
        repeatCount="indefinite"
      />
    </line>
    <line x1="0" y1="0" x2="15" y2="0" stroke="#2196F3" stroke-width="2">
      <animateTransform
        attributeName="transform"
        type="rotate"
        from="0 0 0"
        to="360 0 0"
        dur="6s"
        repeatCount="indefinite"
      />
    </line>
  </g>
  
  <!-- Connection Lines -->
  <path d="M200 150 Q400 100 600 150" stroke="#2196F3" stroke-width="2" stroke-dasharray="5,5"/>
  <path d="M150 250 Q400 300 650 250" stroke="#1976D2" stroke-width="2" stroke-dasharray="5,5"/>
</svg>
